<?xml version="1.0" encoding="UTF-8" standalone="no"?>
<svg xmlns="http://www.w3.org/2000/svg" xmlns:xlink="http://www.w3.org/1999/xlink" class="card" face="5H" height="3.5in" preserveAspectRatio="none" viewBox="-106 -164.5 212 329" width="2.25in"><defs><symbol id="SH5" viewBox="-600 -600 1200 1200" preserveAspectRatio="xMinYMid"><path d="M0 -300A230 230 0 0 1 460 -150C400 0 200 300 0 500C-200 300 -400 0 -460 -150A230 230 0 0 1 0 -300Z" fill="red"></path></symbol><symbol id="VH5" viewBox="-500 -500 1000 1000" preserveAspectRatio="xMinYMid"><path d="M170 -460L-175 -460L-210 -115C-210 -115 -200 -200 0 -200C100 -200 255 -80 255 120C255 320 180 460 -20 460C-220 460 -255 285 -255 285" stroke="red" stroke-width="80" stroke-linecap="square" stroke-miterlimit="1.5" fill="none"></path></symbol></defs><rect width="211" height="328" x="-105.5" y="-164" rx="12" ry="12" fill="white" stroke="black"></rect><use xlink:href="#VH5" height="32" width="32" x="-100.4" y="-152.5"></use><use xlink:href="#SH5" height="26.032" width="26.032" x="-97.416" y="-115.5"></use><use xlink:href="#SH5" height="54" width="54" x="-72.167" y="-131.41"></use><use xlink:href="#SH5" height="54" width="54" x="18.167" y="-131.41"></use><use xlink:href="#SH5" height="54" width="54" x="-27" y="-27"></use><g transform="rotate(180)"><use xlink:href="#VH5" height="32" width="32" x="-100.4" y="-152.5"></use><use xlink:href="#SH5" height="26.032" width="26.032" x="-97.416" y="-115.5"></use><use xlink:href="#SH5" height="54" width="54" x="-72.167" y="-131.41"></use><use xlink:href="#SH5" height="54" width="54" x="18.167" y="-131.41"></use></g></svg>