<?xml version="1.0" encoding="UTF-8" standalone="no"?>
<svg xmlns="http://www.w3.org/2000/svg" xmlns:xlink="http://www.w3.org/1999/xlink" class="card" face="5S" height="3.5in" preserveAspectRatio="none" viewBox="-106 -164.5 212 329" width="2.25in"><defs><symbol id="SS5" viewBox="-600 -600 1200 1200" preserveAspectRatio="xMinYMid"><path d="M0 -500C350 -250 460 -100 460 100C460 300 260 340 210 340C110 340 55 285 100 300L130 500L-130 500L-100 300C-55 285 -110 340 -210 340C-260 340 -460 300 -460 100C-460 -100 -350 -250 0 -500Z" fill="black"></path></symbol><symbol id="VS5" viewBox="-500 -500 1000 1000" preserveAspectRatio="xMinYMid"><path d="M170 -460L-175 -460L-210 -115C-210 -115 -200 -200 0 -200C100 -200 255 -80 255 120C255 320 180 460 -20 460C-220 460 -255 285 -255 285" stroke="black" stroke-width="80" stroke-linecap="square" stroke-miterlimit="1.5" fill="none"></path></symbol></defs><rect width="211" height="328" x="-105.5" y="-164" rx="12" ry="12" fill="white" stroke="black"></rect><use xlink:href="#VS5" height="32" width="32" x="-100.4" y="-152.5"></use><use xlink:href="#SS5" height="26.032" width="26.032" x="-97.416" y="-115.5"></use><use xlink:href="#SS5" height="54" width="54" x="-72.167" y="-130.667"></use><use xlink:href="#SS5" height="54" width="54" x="18.167" y="-130.667"></use><use xlink:href="#SS5" height="54" width="54" x="-27" y="-27"></use><g transform="rotate(180)"><use xlink:href="#VS5" height="32" width="32" x="-100.4" y="-152.5"></use><use xlink:href="#SS5" height="26.032" width="26.032" x="-97.416" y="-115.5"></use><use xlink:href="#SS5" height="54" width="54" x="-72.167" y="-130.667"></use><use xlink:href="#SS5" height="54" width="54" x="18.167" y="-130.667"></use></g></svg>