<?xml version="1.0" encoding="UTF-8" standalone="no"?>
<svg xmlns="http://www.w3.org/2000/svg" xmlns:xlink="http://www.w3.org/1999/xlink" class="card" face="6H" height="3.5in" preserveAspectRatio="none" viewBox="-106 -164.5 212 329" width="2.25in"><defs><symbol id="SH6" viewBox="-600 -600 1200 1200" preserveAspectRatio="xMinYMid"><path d="M0 -300A230 230 0 0 1 460 -150C400 0 200 300 0 500C-200 300 -400 0 -460 -150A230 230 0 0 1 0 -300Z" fill="red"></path></symbol><symbol id="VH6" viewBox="-500 -500 1000 1000" preserveAspectRatio="xMinYMid"><path d="M-250 100A250 250 0 0 1 250 100L250 210A250 250 0 0 1 -250 210L-250 -210A250 250 0 0 1 0 -460C150 -460 180 -400 200 -375" stroke="red" stroke-width="80" stroke-linecap="square" stroke-miterlimit="1.5" fill="none"></path></symbol></defs><rect width="211" height="328" x="-105.5" y="-164" rx="12" ry="12" fill="white" stroke="black"></rect><use xlink:href="#VH6" height="32" width="32" x="-100.4" y="-152.5"></use><use xlink:href="#SH6" height="26.032" width="26.032" x="-97.416" y="-115.5"></use><use xlink:href="#SH6" height="54" width="54" x="-72.167" y="-131.41"></use><use xlink:href="#SH6" height="54" width="54" x="18.167" y="-131.41"></use><use xlink:href="#SH6" height="54" width="54" x="-72.167" y="-27"></use><use xlink:href="#SH6" height="54" width="54" x="18.167" y="-27"></use><g transform="rotate(180)"><use xlink:href="#VH6" height="32" width="32" x="-100.4" y="-152.5"></use><use xlink:href="#SH6" height="26.032" width="26.032" x="-97.416" y="-115.5"></use><use xlink:href="#SH6" height="54" width="54" x="-72.167" y="-131.41"></use><use xlink:href="#SH6" height="54" width="54" x="18.167" y="-131.41"></use></g></svg>