<?xml version="1.0" encoding="UTF-8" standalone="no"?>
<svg xmlns="http://www.w3.org/2000/svg" xmlns:xlink="http://www.w3.org/1999/xlink" class="card" face="8C" height="3.5in" preserveAspectRatio="none" viewBox="-106 -164.5 212 329" width="2.25in"><defs><symbol id="SC8" viewBox="-600 -600 1200 1200" preserveAspectRatio="xMinYMid"><path d="M-100 500L100 500L100 340A260 260 0 1 0 200 -150A230 230 0 1 0 -200 -150A260 260 0 1 0 -100 340Z" fill="black"></path></symbol><symbol id="VC8" viewBox="-500 -500 1000 1000" preserveAspectRatio="xMinYMid"><path d="M-1 -50A205 205 0 1 1 1 -50L-1 -50A255 255 0 1 0 1 -50Z" stroke="black" stroke-width="80" stroke-linecap="square" stroke-miterlimit="1.5" fill="none"></path></symbol></defs><rect width="211" height="328" x="-105.5" y="-164" rx="12" ry="12" fill="white" stroke="black"></rect><use xlink:href="#VC8" height="32" width="32" x="-100.4" y="-152.5"></use><use xlink:href="#SC8" height="26.032" width="26.032" x="-97.416" y="-115.5"></use><use xlink:href="#SC8" height="54" width="54" x="-72.167" y="-130.802"></use><use xlink:href="#SC8" height="54" width="54" x="18.167" y="-130.802"></use><use xlink:href="#SC8" height="54" width="54" x="-27" y="-110.041"></use><use xlink:href="#SC8" height="54" width="54" x="-72.167" y="-27"></use><use xlink:href="#SC8" height="54" width="54" x="18.167" y="-27"></use><g transform="rotate(180)"><use xlink:href="#VC8" height="32" width="32" x="-100.4" y="-152.5"></use><use xlink:href="#SC8" height="26.032" width="26.032" x="-97.416" y="-115.5"></use><use xlink:href="#SC8" height="54" width="54" x="-72.167" y="-130.802"></use><use xlink:href="#SC8" height="54" width="54" x="18.167" y="-130.802"></use><use xlink:href="#SC8" height="54" width="54" x="-27" y="-110.041"></use></g></svg>